<?xml version="1.0" encoding="UTF-8" standalone="no"?>
<!-- Generator: Adobe Illustrator 16.0.0, SVG Export Plug-In . SVG Version: 6.00 Build 0)  -->

<svg
   xmlns:dc="http://purl.org/dc/elements/1.1/"
   xmlns:cc="http://creativecommons.org/ns#"
   xmlns:rdf="http://www.w3.org/1999/02/22-rdf-syntax-ns#"
   xmlns:svg="http://www.w3.org/2000/svg"
   xmlns="http://www.w3.org/2000/svg"
   xmlns:sodipodi="http://sodipodi.sourceforge.net/DTD/sodipodi-0.dtd"
   xmlns:inkscape="http://www.inkscape.org/namespaces/inkscape"
   version="1.1"
   id="Capa_1"
   x="0px"
   y="0px"
   width="558.266px"
   height="558.266px"
   viewBox="0 0 558.266 558.266"
   style="enable-background:new 0 0 558.266 558.266;"
   xml:space="preserve"
   inkscape:version="0.91 r13725"
   sodipodi:docname="pacdot.svg"><metadata
     id="metadata43"><rdf:RDF><cc:Work
         rdf:about=""><dc:format>image/svg+xml</dc:format><dc:type
           rdf:resource="http://purl.org/dc/dcmitype/StillImage" /></cc:Work></rdf:RDF></metadata><defs
     id="defs41" /><sodipodi:namedview
     pagecolor="#ffffff"
     bordercolor="#666666"
     borderopacity="1"
     objecttolerance="10"
     gridtolerance="10"
     guidetolerance="10"
     inkscape:pageopacity="0"
     inkscape:pageshadow="2"
     inkscape:window-width="1366"
     inkscape:window-height="710"
     id="namedview39"
     showgrid="false"
     inkscape:zoom="0.42273755"
     inkscape:cx="279.133"
     inkscape:cy="279.133"
     inkscape:window-x="0"
     inkscape:window-y="0"
     inkscape:window-maximized="1"
     inkscape:current-layer="Capa_1" /><g
     id="g3"><g
       id="g5"><path
         d="M279.133,558.266c154.164,0,279.132-124.969,279.132-279.133C558.266,124.97,433.297,0,279.133,0    C124.971,0,0,124.97,0,279.133C0,433.297,124.971,558.266,279.133,558.266z M279.133,61.2    c120.171,0,217.933,97.767,217.933,217.933c0,120.166-97.762,217.934-217.933,217.934c-120.172,0-217.933-97.762-217.933-217.934    S158.961,61.2,279.133,61.2z"
         id="path7" /></g></g><g
     id="g9" /><g
     id="g11" /><g
     id="g13" /><g
     id="g15" /><g
     id="g17" /><g
     id="g19" /><g
     id="g21" /><g
     id="g23" /><g
     id="g25" /><g
     id="g27" /><g
     id="g29" /><g
     id="g31" /><g
     id="g33" /><g
     id="g35" /><g
     id="g37" /><path
     style="fill:#ffffff;stroke:none;stroke-width:1px;stroke-linecap:butt;stroke-linejoin:miter;stroke-opacity:1"
     d="M 234.42441,491.2674 C 156.04282,473.99737 91.709352,413.38953 70.014762,336.37892 63.542727,313.40473 61.206025,269.66835 65.145799,245.24584 83.599757,130.85045 191.80092,49.292711 305.39042,64.158984 419.62685,79.109924 501.74747,177.92861 495.09779,292.44065 c -5.5819,96.12412 -77.26621,178.96005 -172.13822,198.917 -20.4951,4.31128 -68.78188,4.26205 -88.53516,-0.0904 l 0,1.2e-4 z"
     id="path3371"
     inkscape:connector-curvature="0" /><path
     style="fill:#ffffff"
     d="M 234.42441,491.35767 C 195.42366,482.74069 160.87962,464.30429 131.46518,436.40757 87.998666,395.18386 66.320273,348.69466 63.587012,290.8432 61.502645,246.72608 68.912909,213.27927 89.037812,175.96901 120.80398,117.07658 176.47844,77.34642 243.65493,65.631821 c 36.62533,-6.386922 72.2241,-3.241622 108.24685,9.564057 66.37435,23.59534 118.75392,80.829082 137.28073,150.002942 4.52364,16.89004 5.35893,25.78411 5.22069,55.59005 -0.14572,31.41739 -0.88916,37.86501 -6.48845,56.27208 -16.20147,53.26061 -46.99156,94.74516 -92.24794,124.28884 -20.31535,13.26198 -48.93928,25.17557 -72.47702,30.16568 -19.38965,4.11071 -69.85196,4.02099 -88.76538,-0.15778 l 0,-2e-5 z"
     id="path3373"
     inkscape:connector-curvature="0" /><path
     style="fill:#ffffff"
     d="M 238.13519,492.29511 C 193.43337,483.52645 154.43437,461.40256 120.73225,425.69319 57.704733,358.91181 44.63937,262.262 87.40399,179.15046 136.21913,84.279945 245.68868,40.151944 347.97003,74.11432 c 54.58959,18.126397 99.54039,57.44061 125.4067,109.68138 16.81062,33.95149 20.85452,52.50685 20.88064,95.8104 0.0189,33.19048 -0.58784,38.666 -6.4132,57.76889 -11.94943,39.18533 -31.21687,71.19176 -58.69174,97.49666 -28.97788,27.74393 -67.97458,48.59018 -105.96264,56.64382 -17.01531,3.60735 -68.2453,4.07693 -85.0546,0.77964 z"
     id="path3375"
     inkscape:connector-curvature="0" /></svg>